<?xml version="1.0" encoding="UTF-8"?> <svg xmlns="http://www.w3.org/2000/svg" id="Слой_2" data-name="Слой 2" viewBox="0 0 2305.35 1833.55"> <defs> <style>.cls-1{fill:#6394b9;opacity:0.1;}</style> </defs> <title>3</title> <path class="cls-1" d="M176.66,133.82c-14.5,31.6-9.93,44.12-19.51,146.34-13.52,144.1-26.43,151.94-19.52,214.64,6.59,59.73,16,48.58,31.71,141.46,14.07,83.22,8.29,102.75,24.39,178,13.8,64.51,20.69,96.77,41.47,126.83,9.93,14.37,44.89,60.66,156.09,95.12,99.19,30.73,129.81,12,278.05,26.83,96.59,9.65,178.84.46,253.66,41.46,88.74,48.63,76.67,104.77,174.85,191.32,81.35,71.72,133.28,71.67,243,126,185.31,91.76,193.84,169.45,333,258,174.14,110.81,475.86,189.71,609.06,72,89.53-79.11,31.83-184.21,60-636.06,4.85-77.72,20.08-219.73,50.55-503.73,51.19-477.28,68-538.48,15.28-594.28-69.14-73.14-157.16-30.49-642.23-9.8-46.93,2-242.53,10-489.92,8.7C978,15.19,828.72,13.62,730.32,7c-60.18-4.05-178-13.46-336.59,0-38.27,3.25-69.63,7-90.24,9.76C261.64,36.29,205.28,71.46,176.66,133.82Z" transform="translate(-135.71 23.23)"></path> </svg> 