<svg width="2244" height="2405" viewBox="0 0 2244 2405" fill="none" xmlns="http://www.w3.org/2000/svg">
<path d="M752.5 695C899.7 456.2 1035.17 494.5 1084.5 543.5C1306 650 1338 252.5 1571.5 84.5C1805 -83.5 1940 35.5 2177.5 146C2415 256.5 1952.5 695 1784.5 727.5C1616.5 760 1428 1088 1338 1260C1248 1432 1330 1436 1858 1526C2386 1616 2120 1608 2091.5 1882C2063 2156 1641 2091 1154 2320.5C667 2550 752.5 2263 654.5 2025.5C556.5 1788 269.5 1730.5 80.9999 1550.5C-107.5 1370.5 56.4999 1309 335 1165.5C613.5 1022 568.5 993.5 752.5 695Z" fill="#CBFFC2" fill-opacity="0.2"/>
</svg>
